<?xml version="1.0" standalone="no"?>
<!DOCTYPE svg PUBLIC "-//W3C//DTD SVG 20010904//EN"
 "http://www.w3.org/TR/2001/REC-SVG-20010904/DTD/svg10.dtd">
<svg version="1.0" xmlns="http://www.w3.org/2000/svg"
 width="1024.000000pt" height="1024.000000pt" viewBox="0 0 1024.000000 1024.000000"
 preserveAspectRatio="xMidYMid meet">
<metadata>
Created by potrace 1.16, written by Peter Selinger 2001-2019
</metadata>
<g transform="translate(0.000000,1024.000000) scale(0.100000,-0.100000)"
fill="#174165" stroke="none">
<path d="M5180 7939 c-567 -56 -1074 -264 -1523 -624 -466 -374 -817 -922
-962 -1502 -127 -512 -108 -1064 55 -1573 173 -538 529 -1035 985 -1375 382
-285 783 -458 1235 -534 432 -73 910 -41 1313 86 436 137 835 382 1161 711
l99 100 -113 120 c-62 66 -202 209 -311 318 l-198 198 -113 -110 c-305 -298
-655 -475 -1078 -544 -109 -18 -384 -24 -500 -11 -580 67 -1086 381 -1410 876
-131 201 -232 467 -282 745 -20 115 -17 509 5 630 161 874 837 1501 1714 1591
130 14 374 6 498 -15 414 -72 807 -278 1081 -568 l81 -86 313 313 c278 278
311 314 302 332 -21 39 -276 275 -387 358 -404 304 -845 486 -1330 551 -137
18 -508 26 -635 13z"/>
<path d="M5165 6744 c-357 -64 -646 -216 -907 -477 -218 -219 -371 -506 -439
-827 -30 -141 -34 -474 -6 -617 64 -335 205 -607 441 -851 497 -515 1284 -645
1931 -321 66 33 161 89 210 124 100 71 265 220 265 238 0 7 -31 44 -69 81
l-70 69 -90 -85 c-96 -92 -231 -188 -344 -245 -143 -71 -404 -143 -524 -143
l-43 0 0 125 0 125 -105 0 -105 0 0 -125 0 -125 -29 0 c-35 0 -208 35 -271 54
-133 41 -253 98 -360 169 -344 229 -562 562 -630 962 -11 64 -20 123 -20 131
0 11 25 14 130 14 l131 0 -3 103 -3 102 -127 3 c-71 1 -128 6 -128 11 0 5 9
60 20 124 54 313 212 600 452 822 203 188 507 328 781 360 l57 6 0 -125 0
-126 105 0 105 0 0 230 0 230 -137 -1 c-76 0 -174 -7 -218 -15z"/>
<path d="M5373 6075 c-63 -27 -63 -25 -63 -395 l0 -336 -49 -36 c-196 -146
-87 -458 160 -458 48 0 126 33 165 71 l30 29 283 -71 c163 -41 292 -68 305
-65 80 20 108 138 42 181 -18 12 -476 132 -560 147 -13 2 -24 18 -34 47 -14
42 -91 134 -120 142 -11 4 -15 76 -19 348 -6 330 -7 345 -27 367 -29 33 -75
45 -113 29z"/>
</g>
</svg>
