<?xml version="1.0" standalone="no"?>
<!DOCTYPE svg PUBLIC "-//W3C//DTD SVG 20010904//EN"
 "http://www.w3.org/TR/2001/REC-SVG-20010904/DTD/svg10.dtd">
<svg version="1.0" xmlns="http://www.w3.org/2000/svg"
 width="2224.000000pt" height="568.000000pt" viewBox="0 0 2224.000000 568.000000"
 preserveAspectRatio="xMidYMid meet">
<metadata>
Created by potrace 1.16, written by Peter Selinger 2001-2019
</metadata>
<g transform="translate(0.000000,568.000000) scale(0.100000,-0.100000)"
fill="#57b0ff" stroke="none">
<path d="M2580 5659 c-567 -56 -1074 -264 -1523 -624 -466 -374 -817 -922
-962 -1502 -127 -512 -108 -1064 55 -1573 173 -538 529 -1035 985 -1375 382
-285 783 -458 1235 -534 432 -73 910 -41 1313 86 436 137 835 382 1161 711
l99 100 -113 120 c-62 66 -202 209 -311 318 l-198 198 -113 -110 c-305 -298
-655 -475 -1078 -544 -109 -18 -384 -24 -500 -11 -580 67 -1086 381 -1410 876
-131 201 -232 467 -282 745 -20 115 -17 509 5 630 161 874 837 1501 1714 1591
130 14 374 6 498 -15 414 -72 807 -278 1081 -568 l81 -86 313 313 c278 278
311 314 302 332 -21 39 -276 275 -387 358 -404 304 -845 486 -1330 551 -137
18 -508 26 -635 13z"/>
<path d="M5390 2870 l0 -2130 265 0 264 0 3 947 3 948 27 80 c124 361 452 580
800 536 305 -39 482 -227 555 -589 14 -66 17 -209 20 -999 l4 -923 265 0 264
0 0 948 c0 625 -4 978 -11 1037 -25 204 -98 415 -196 562 -124 187 -316 320
-563 389 -101 29 -396 26 -504 -4 -255 -71 -490 -231 -616 -419 l-50 -75 0
911 0 911 -265 0 -265 0 0 -2130z"/>
<path d="M2565 4464 c-357 -64 -646 -216 -907 -477 -218 -219 -371 -506 -439
-827 -30 -141 -34 -474 -6 -617 64 -335 205 -607 441 -851 497 -515 1284 -645
1931 -321 66 33 161 89 210 124 100 71 265 220 265 238 0 7 -31 44 -69 81
l-70 69 -90 -85 c-96 -92 -231 -188 -344 -245 -143 -71 -404 -143 -524 -143
l-43 0 0 125 0 125 -105 0 -105 0 0 -125 0 -125 -29 0 c-35 0 -208 35 -271 54
-133 41 -253 98 -360 169 -344 229 -562 562 -630 962 -11 64 -20 123 -20 131
0 11 25 14 130 14 l131 0 -3 103 -3 102 -127 3 c-71 1 -128 6 -128 11 0 5 9
60 20 124 54 313 212 600 452 822 203 188 507 328 781 360 l57 6 0 -125 0
-126 105 0 105 0 0 230 0 230 -137 -1 c-76 0 -174 -7 -218 -15z"/>
<path d="M2773 3795 c-63 -27 -63 -25 -63 -395 l0 -336 -49 -36 c-196 -146
-87 -458 160 -458 48 0 126 33 165 71 l30 29 283 -71 c163 -41 292 -68 305
-65 80 20 108 138 42 181 -18 12 -476 132 -560 147 -13 2 -24 18 -34 47 -14
42 -91 134 -120 142 -11 4 -15 76 -19 348 -6 330 -7 345 -27 367 -29 33 -75
45 -113 29z"/>
<path d="M9815 3681 c-138 -34 -275 -113 -383 -221 -66 -65 -159 -199 -191
-271 -11 -24 -27 -62 -37 -84 l-18 -40 -7 70 c-3 39 -7 124 -8 190 -1 66 -4
164 -8 218 l-6 97 -234 0 -235 0 6 -62 c4 -35 9 -687 12 -1451 l5 -1387 264 0
264 0 4 838 c4 896 5 905 57 1070 109 339 354 543 659 546 53 1 120 -3 149 -7
l52 -8 0 261 0 260 -137 -1 c-95 0 -160 -6 -208 -18z"/>
<path d="M11655 3693 c-163 -20 -340 -75 -488 -150 -503 -256 -781 -793 -754
-1453 26 -621 322 -1087 829 -1304 174 -74 348 -106 578 -106 566 0 1042 281
1278 755 75 151 119 299 148 495 23 162 15 511 -16 655 -129 602 -524 997
-1095 1095 -89 15 -157 20 -283 19 -92 -1 -180 -4 -197 -6z m335 -407 c330
-60 571 -315 675 -711 34 -130 46 -231 46 -386 0 -154 -11 -243 -47 -376 -96
-360 -327 -620 -626 -703 -450 -125 -886 166 -1032 690 -46 163 -61 418 -36
600 59 427 285 749 603 855 135 45 280 56 417 31z"/>
<path d="M15139 3684 c-97 -17 -250 -71 -332 -118 -139 -77 -281 -208 -364
-335 l-41 -63 -6 53 c-6 53 -26 368 -26 402 0 16 -20 17 -241 17 l-242 0 7
-47 c14 -102 25 -901 26 -1855 l0 -998 265 0 265 0 0 889 c0 583 4 917 11 968
14 102 63 232 122 319 55 84 170 195 249 242 176 104 413 127 603 58 237 -86
379 -312 415 -657 6 -61 10 -437 10 -960 l0 -859 265 0 266 0 -4 1003 c-3 973
-4 1005 -24 1097 -103 468 -370 757 -778 841 -109 23 -331 24 -446 3z"/>
<path d="M18275 3693 c-163 -20 -340 -75 -488 -150 -503 -256 -781 -793 -754
-1453 26 -621 322 -1087 829 -1304 174 -74 348 -106 578 -106 566 0 1042 281
1278 755 75 151 119 299 148 495 23 162 15 511 -16 655 -129 602 -524 997
-1095 1095 -89 15 -157 20 -283 19 -92 -1 -180 -4 -197 -6z m335 -407 c330
-60 571 -315 675 -711 34 -130 46 -231 46 -386 0 -154 -11 -243 -47 -376 -96
-360 -327 -620 -626 -703 -450 -125 -886 166 -1032 690 -46 163 -61 418 -36
600 59 427 285 749 603 855 135 45 280 56 417 31z"/>
<path d="M21175 3684 c-44 -8 -123 -29 -177 -48 -379 -129 -611 -461 -585
-835 13 -174 76 -308 207 -442 137 -139 273 -219 577 -339 295 -115 425 -205
489 -336 27 -55 29 -67 29 -179 0 -115 -1 -122 -31 -180 -60 -115 -180 -198
-330 -230 -93 -20 -287 -20 -394 0 -125 24 -283 78 -395 135 -54 28 -102 47
-106 43 -8 -10 -129 -374 -129 -390 0 -27 204 -113 358 -152 292 -74 695 -68
945 13 320 105 531 326 594 619 11 53 14 112 11 222 -4 130 -8 160 -32 230
-94 274 -295 440 -751 620 -93 37 -210 88 -259 114 -104 54 -205 143 -236 206
-47 97 -42 225 12 328 78 146 259 225 488 214 174 -9 308 -45 463 -123 60 -30
89 -40 92 -31 64 183 125 365 125 375 0 34 -271 132 -448 163 -139 23 -395 25
-517 3z"/>
</g>
</svg>
